<svg width="19" height="24" viewBox="0 0 19 24" fill="none" xmlns="http://www.w3.org/2000/svg">
<path d="M18.3675 14.5313V14.5898C18.3602 15.8054 18.0936 17.0065 17.5844 18.1184C16.1982 21.1218 12.8169 23.296 9.36124 23.4075C9.27706 23.4075 9.18497 23.4075 9.09105 23.4075C8.17189 23.4049 7.25863 23.266 6.38325 22.9957C2.38522 21.7641 0.732799 18.109 0.732799 18.109C0.499879 17.6093 0.330902 17.084 0.229602 16.5449C-0.357753 13.3752 1.65892 10.7666 2.0622 10.2452C2.5396 9.62961 3.09318 9.07264 3.71071 8.58673L4.82083 10.1319L3.91044 11.0763C3.65198 11.3861 2.02111 13.4054 2.53994 16.0614C3.15278 19.2347 6.29906 20.5948 6.8218 20.7667C6.95499 20.812 7.0959 20.8555 7.0959 20.8555C7.80431 21.0737 8.54546 21.1759 9.28879 21.1577C11.8869 21.0746 14.4263 19.4464 15.464 17.1909C15.8435 16.3443 16.0432 15.4329 16.0514 14.5105C16.0716 13.852 15.9708 13.1952 15.7537 12.5705C15.6454 12.2733 15.5105 11.9857 15.3504 11.711C14.6123 10.4285 10.6515 5.65504 9.59225 4.20053L8.32158 6.01767L11.6794 10.0657C11.932 10.3963 12.1747 10.7439 12.3999 11.0972C12.9011 11.8811 13.2985 12.5006 13.5335 13.3204C13.7688 14.072 13.8098 14.8677 13.6529 15.6382C13.2614 17.2419 11.5501 18.9401 9.34552 19.0081C8.72764 19.0201 8.11368 18.9101 7.54133 18.685C6.96898 18.4599 6.45032 18.1244 6.01714 17.699C5.67259 17.3742 4.34318 16.1614 4.51346 14.348C4.65637 12.8086 5.78414 11.8791 6.03669 11.6808L7.26236 13.2317C6.88297 13.6031 6.65491 14.0939 6.62016 14.6144C6.56343 15.642 7.34854 16.2918 7.50909 16.4183C7.81386 16.6453 8.16728 16.8036 8.54372 16.8817C8.92008 16.9598 9.30972 16.9557 9.68425 16.8698C10.2025 16.7219 10.6588 16.4193 10.9876 16.0057C11.3165 15.592 11.5011 15.0883 11.5149 14.5671C11.5181 14.1242 11.3933 13.6893 11.1547 13.311L5.56486 6.06111L5.81941 5.71168C6.89235 4.23832 7.9652 2.76305 9.03814 1.28586L9.53543 0.602051L10.0739 1.25752C10.3872 1.63531 10.7044 2.03197 11.0117 2.4211C12.6348 4.47254 15.8085 8.19005 17.2378 10.3812L17.2554 10.4077C17.9761 11.6714 18.3584 13.0888 18.3675 14.5313Z" fill="#77DB89"/>
</svg>